<?xml version="1.0" encoding="UTF-8"?>
<svg viewBox="0 0 40 40" xmlns="http://www.w3.org/2000/svg">
<path d="M21.3933 40H18.6067C8.33091 40 0 31.1351 0 20.2008V19.7992C0 8.86486 8.33091 0 18.6067 0H21.3933C31.6691 0 40 8.86486 40 19.7992V20.2008C39.971 31.1351 31.6401 40 21.3933 40Z" fill="#F2D03B"/>
<path d="m2.5253 15.413c-0.05805 0-0.11611 0-0.17416-0.0309-0.31931-0.0926-0.5225-0.4633-0.43542-0.8339 1.5965-5.6834 5.6604-10.286 10.943-12.293 0.3193-0.12355 0.6677 0.06178 0.7838 0.40155s-0.0581 0.71042-0.3774 0.83398c-4.9056 1.8533-8.7083 6.1158-10.16 11.429-0.05805 0.3089-0.3193 0.4942-0.58055 0.4942z" fill="#fff"/>
<path d="m29.55 2.0077c4.4993 3.6139 7.402 9.3282 7.402 15.784v0.4015c0 10.934-8.3309 19.799-18.607 19.799h-2.7867c-2.9318 0-5.7184-0.7104-8.1858-2.0077 3.106 2.502 6.9956 3.9846 11.205 3.9846h2.7866c10.276 0 18.607-8.8649 18.607-19.799v-0.4016c0-7.7838-4.238-14.517-10.421-17.761z" fill="#E8B938"/>
<path d="m12.656 12.417c-1.1611 0-2.061 0.9575-2.061 2.1622v1.6679c0 1.2046 0.8999 2.1622 2.032 2.1622h0.029c1.1321 0 2.0319-0.9576 2.0319-2.1622v-1.6679c0-1.2047-0.8998-2.1622-2.0319-2.1622z" fill="#3D3813"/>
<path d="m27.373 12.417h-0.0581c-1.132 0-2.0319 0.9575-2.0319 2.1622v1.6679c0 1.2046 0.8999 2.1622 2.0319 2.1622h0.0291c1.132 0 2.0319-0.9576 2.0319-2.1622v-1.6679c0-1.2047-0.8999-2.1622-2.0029-2.1622z" fill="#3D3813"/>
<path d="m28.999 30.085c-0.3774 0-0.6967-0.2162-0.8709-0.6178-0.087-0.2162-2.0029-4.8494-8.1277-4.8494-6.1538 0-8.0696 4.6332-8.1277 4.8494-0.2032 0.4943-0.7547 0.7414-1.2192 0.5251-0.4644-0.2162-0.69662-0.7722-0.4934-1.2973 0.0871-0.2471 2.4383-6.054 9.8694-6.054 7.431 0 9.7532 5.8069 9.8693 6.054 0.2032 0.4943-0.029 1.0811-0.4934 1.2973-0.1742 0.0618-0.2903 0.0927-0.4064 0.0927z" fill="#3D3813"/>
</svg>
